<?xml version="1.0" encoding="UTF-8" standalone="no"?>
<svg
   width="31cm"
   height="20cm"
   viewBox="115 91 607 389"
   version="1.1"
   id="svg1667"
   sodipodi:docname="modules.svg"
   inkscape:version="1.1.1 (3bf5ae0d25, 2021-09-20)"
   inkscape:export-filename="/home/wtz/Projects/libbzdev/diagrams/modules.png"
   inkscape:export-xdpi="50.306431"
   inkscape:export-ydpi="50.306431"
   xmlns:inkscape="http://www.inkscape.org/namespaces/inkscape"
   xmlns:sodipodi="http://sodipodi.sourceforge.net/DTD/sodipodi-0.dtd"
   xmlns="http://www.w3.org/2000/svg"
   xmlns:svg="http://www.w3.org/2000/svg"
   xmlns:rdf="http://www.w3.org/1999/02/22-rdf-syntax-ns#"
   xmlns:cc="http://creativecommons.org/ns#"
   xmlns:dc="http://purl.org/dc/elements/1.1/">
  <metadata
     id="metadata1673">
    <rdf:RDF>
      <cc:Work
         rdf:about="">
        <dc:format>image/svg+xml</dc:format>
        <dc:type
           rdf:resource="http://purl.org/dc/dcmitype/StillImage" />
      </cc:Work>
    </rdf:RDF>
  </metadata>
  <defs
     id="defs1671">
    <marker
       inkscape:isstock="true"
       style="overflow:visible"
       id="marker2093"
       refX="0"
       refY="0"
       orient="auto"
       inkscape:stockid="Arrow2Mend">
      <path
         inkscape:connector-curvature="0"
         transform="scale(-0.6)"
         d="M 8.7185878,4.0337352 -2.2072895,0.01601326 8.7185884,-4.0017078 c -1.7454984,2.3720609 -1.7354408,5.6174519 -6e-7,8.035443 z"
         style="fill:#000000;fill-opacity:1;fill-rule:evenodd;stroke:#000000;stroke-width:0.625;stroke-linejoin:round;stroke-opacity:1"
         id="path2091" />
    </marker>
    <marker
       inkscape:isstock="true"
       style="overflow:visible"
       id="marker1133"
       refX="0"
       refY="0"
       orient="auto"
       inkscape:stockid="Arrow2Mend">
      <path
         inkscape:connector-curvature="0"
         transform="scale(-0.6)"
         d="M 8.7185878,4.0337352 -2.2072895,0.01601326 8.7185884,-4.0017078 c -1.7454984,2.3720609 -1.7354408,5.6174519 -6e-7,8.035443 z"
         style="fill:#000000;fill-opacity:1;fill-rule:evenodd;stroke:#000000;stroke-width:0.625;stroke-linejoin:round;stroke-opacity:1"
         id="path1131" />
    </marker>
    <marker
       inkscape:isstock="true"
       style="overflow:visible"
       id="marker1155"
       refX="0"
       refY="0"
       orient="auto"
       inkscape:stockid="Arrow2Mend">
      <path
         inkscape:connector-curvature="0"
         transform="scale(-0.6)"
         d="M 8.7185878,4.0337352 -2.2072895,0.01601326 8.7185884,-4.0017078 c -1.7454984,2.3720609 -1.7354408,5.6174519 -6e-7,8.035443 z"
         style="fill:#000000;fill-opacity:1;fill-rule:evenodd;stroke:#000000;stroke-width:0.625;stroke-linejoin:round;stroke-opacity:1"
         id="path1153" />
    </marker>
    <marker
       inkscape:isstock="true"
       style="overflow:visible"
       id="marker1183"
       refX="0"
       refY="0"
       orient="auto"
       inkscape:stockid="Arrow2Mend">
      <path
         inkscape:connector-curvature="0"
         transform="scale(-0.6)"
         d="M 8.7185878,4.0337352 -2.2072895,0.01601326 8.7185884,-4.0017078 c -1.7454984,2.3720609 -1.7354408,5.6174519 -6e-7,8.035443 z"
         style="fill:#000000;fill-opacity:1;fill-rule:evenodd;stroke:#000000;stroke-width:0.625;stroke-linejoin:round;stroke-opacity:1"
         id="path1181" />
    </marker>
    <marker
       inkscape:isstock="true"
       style="overflow:visible"
       id="marker1217"
       refX="0"
       refY="0"
       orient="auto"
       inkscape:stockid="Arrow2Mend">
      <path
         inkscape:connector-curvature="0"
         transform="scale(-0.6)"
         d="M 8.7185878,4.0337352 -2.2072895,0.01601326 8.7185884,-4.0017078 c -1.7454984,2.3720609 -1.7354408,5.6174519 -6e-7,8.035443 z"
         style="fill:#000000;fill-opacity:1;fill-rule:evenodd;stroke:#000000;stroke-width:0.625;stroke-linejoin:round;stroke-opacity:1"
         id="path1215" />
    </marker>
    <marker
       inkscape:isstock="true"
       style="overflow:visible"
       id="marker1257"
       refX="0"
       refY="0"
       orient="auto"
       inkscape:stockid="Arrow2Mend">
      <path
         inkscape:connector-curvature="0"
         transform="scale(-0.6)"
         d="M 8.7185878,4.0337352 -2.2072895,0.01601326 8.7185884,-4.0017078 c -1.7454984,2.3720609 -1.7354408,5.6174519 -6e-7,8.035443 z"
         style="fill:#000000;fill-opacity:1;fill-rule:evenodd;stroke:#000000;stroke-width:0.625;stroke-linejoin:round;stroke-opacity:1"
         id="path1255" />
    </marker>
    <marker
       inkscape:isstock="true"
       style="overflow:visible"
       id="marker1303"
       refX="0"
       refY="0"
       orient="auto"
       inkscape:stockid="Arrow2Mend">
      <path
         inkscape:connector-curvature="0"
         transform="scale(-0.6)"
         d="M 8.7185878,4.0337352 -2.2072895,0.01601326 8.7185884,-4.0017078 c -1.7454984,2.3720609 -1.7354408,5.6174519 -6e-7,8.035443 z"
         style="fill:#000000;fill-opacity:1;fill-rule:evenodd;stroke:#000000;stroke-width:0.625;stroke-linejoin:round;stroke-opacity:1"
         id="path1301" />
    </marker>
    <marker
       inkscape:isstock="true"
       style="overflow:visible"
       id="marker1355"
       refX="0"
       refY="0"
       orient="auto"
       inkscape:stockid="Arrow2Mend">
      <path
         inkscape:connector-curvature="0"
         transform="scale(-0.6)"
         d="M 8.7185878,4.0337352 -2.2072895,0.01601326 8.7185884,-4.0017078 c -1.7454984,2.3720609 -1.7354408,5.6174519 -6e-7,8.035443 z"
         style="fill:#000000;fill-opacity:1;fill-rule:evenodd;stroke:#000000;stroke-width:0.625;stroke-linejoin:round;stroke-opacity:1"
         id="path1353" />
    </marker>
    <marker
       inkscape:isstock="true"
       style="overflow:visible"
       id="marker1413"
       refX="0"
       refY="0"
       orient="auto"
       inkscape:stockid="Arrow2Mend">
      <path
         inkscape:connector-curvature="0"
         transform="scale(-0.6)"
         d="M 8.7185878,4.0337352 -2.2072895,0.01601326 8.7185884,-4.0017078 c -1.7454984,2.3720609 -1.7354408,5.6174519 -6e-7,8.035443 z"
         style="fill:#000000;fill-opacity:1;fill-rule:evenodd;stroke:#000000;stroke-width:0.625;stroke-linejoin:round;stroke-opacity:1"
         id="path1411" />
    </marker>
    <marker
       inkscape:isstock="true"
       style="overflow:visible"
       id="marker1477"
       refX="0"
       refY="0"
       orient="auto"
       inkscape:stockid="Arrow2Mend">
      <path
         inkscape:connector-curvature="0"
         transform="scale(-0.6)"
         d="M 8.7185878,4.0337352 -2.2072895,0.01601326 8.7185884,-4.0017078 c -1.7454984,2.3720609 -1.7354408,5.6174519 -6e-7,8.035443 z"
         style="fill:#000000;fill-opacity:1;fill-rule:evenodd;stroke:#000000;stroke-width:0.625;stroke-linejoin:round;stroke-opacity:1"
         id="path1475" />
    </marker>
    <marker
       inkscape:isstock="true"
       style="overflow:visible"
       id="marker1547"
       refX="0"
       refY="0"
       orient="auto"
       inkscape:stockid="Arrow2Mend">
      <path
         inkscape:connector-curvature="0"
         transform="scale(-0.6)"
         d="M 8.7185878,4.0337352 -2.2072895,0.01601326 8.7185884,-4.0017078 c -1.7454984,2.3720609 -1.7354408,5.6174519 -6e-7,8.035443 z"
         style="fill:#000000;fill-opacity:1;fill-rule:evenodd;stroke:#000000;stroke-width:0.625;stroke-linejoin:round;stroke-opacity:1"
         id="path1545" />
    </marker>
    <marker
       inkscape:isstock="true"
       style="overflow:visible"
       id="marker1623"
       refX="0"
       refY="0"
       orient="auto"
       inkscape:stockid="Arrow2Mend">
      <path
         inkscape:connector-curvature="0"
         transform="scale(-0.6)"
         d="M 8.7185878,4.0337352 -2.2072895,0.01601326 8.7185884,-4.0017078 c -1.7454984,2.3720609 -1.7354408,5.6174519 -6e-7,8.035443 z"
         style="fill:#000000;fill-opacity:1;fill-rule:evenodd;stroke:#000000;stroke-width:0.625;stroke-linejoin:round;stroke-opacity:1"
         id="path1621" />
    </marker>
    <marker
       inkscape:isstock="true"
       style="overflow:visible"
       id="marker1705"
       refX="0"
       refY="0"
       orient="auto"
       inkscape:stockid="Arrow2Mend">
      <path
         inkscape:connector-curvature="0"
         transform="scale(-0.6)"
         d="M 8.7185878,4.0337352 -2.2072895,0.01601326 8.7185884,-4.0017078 c -1.7454984,2.3720609 -1.7354408,5.6174519 -6e-7,8.035443 z"
         style="fill:#000000;fill-opacity:1;fill-rule:evenodd;stroke:#000000;stroke-width:0.625;stroke-linejoin:round;stroke-opacity:1"
         id="path1703" />
    </marker>
    <marker
       inkscape:isstock="true"
       style="overflow:visible"
       id="marker1793"
       refX="0"
       refY="0"
       orient="auto"
       inkscape:stockid="Arrow2Mend">
      <path
         inkscape:connector-curvature="0"
         transform="scale(-0.6)"
         d="M 8.7185878,4.0337352 -2.2072895,0.01601326 8.7185884,-4.0017078 c -1.7454984,2.3720609 -1.7354408,5.6174519 -6e-7,8.035443 z"
         style="fill:#000000;fill-opacity:1;fill-rule:evenodd;stroke:#000000;stroke-width:0.625;stroke-linejoin:round;stroke-opacity:1"
         id="path1791" />
    </marker>
    <marker
       inkscape:isstock="true"
       style="overflow:visible"
       id="marker1887"
       refX="0"
       refY="0"
       orient="auto"
       inkscape:stockid="Arrow2Mend">
      <path
         inkscape:connector-curvature="0"
         transform="scale(-0.6)"
         d="M 8.7185878,4.0337352 -2.2072895,0.01601326 8.7185884,-4.0017078 c -1.7454984,2.3720609 -1.7354408,5.6174519 -6e-7,8.035443 z"
         style="fill:#000000;fill-opacity:1;fill-rule:evenodd;stroke:#000000;stroke-width:0.625;stroke-linejoin:round;stroke-opacity:1"
         id="path1885" />
    </marker>
    <marker
       inkscape:isstock="true"
       style="overflow:visible"
       id="marker1987"
       refX="0"
       refY="0"
       orient="auto"
       inkscape:stockid="Arrow2Mend">
      <path
         inkscape:connector-curvature="0"
         transform="scale(-0.6)"
         d="M 8.7185878,4.0337352 -2.2072895,0.01601326 8.7185884,-4.0017078 c -1.7454984,2.3720609 -1.7354408,5.6174519 -6e-7,8.035443 z"
         style="fill:#000000;fill-opacity:1;fill-rule:evenodd;stroke:#000000;stroke-width:0.625;stroke-linejoin:round;stroke-opacity:1"
         id="path1985" />
    </marker>
    <marker
       style="overflow:visible"
       id="marker1214"
       refX="0"
       refY="0"
       orient="auto"
       inkscape:stockid="Arrow1Mend"
       inkscape:isstock="true">
      <path
         transform="matrix(-0.4,0,0,-0.4,-4,0)"
         style="fill:context-stroke;fill-rule:evenodd;stroke:context-stroke;stroke-width:1pt"
         d="M 0,0 5,-5 -12.5,0 5,5 Z"
         id="path1212" />
    </marker>
    <marker
       style="overflow:visible"
       id="marker1259"
       refX="0"
       refY="0"
       orient="auto"
       inkscape:stockid="Arrow1Mend"
       inkscape:isstock="true">
      <path
         transform="matrix(-0.4,0,0,-0.4,-4,0)"
         style="fill:context-stroke;fill-rule:evenodd;stroke:context-stroke;stroke-width:1pt"
         d="M 0,0 5,-5 -12.5,0 5,5 Z"
         id="path1257" />
    </marker>
    <marker
       style="overflow:visible"
       id="marker1146"
       refX="0"
       refY="0"
       orient="auto"
       inkscape:stockid="Arrow2Mend"
       inkscape:isstock="true">
      <path
         transform="scale(-0.6)"
         d="M 8.7185878,4.0337352 -2.2072895,0.01601326 8.7185884,-4.0017078 c -1.7454984,2.3720609 -1.7354408,5.6174519 -6e-7,8.035443 z"
         style="fill:context-stroke;fill-rule:evenodd;stroke:context-stroke;stroke-width:0.625;stroke-linejoin:round"
         id="path1144" />
    </marker>
    <marker
       style="overflow:visible"
       id="Arrow1Mend"
       refX="0"
       refY="0"
       orient="auto"
       inkscape:stockid="Arrow1Mend"
       inkscape:isstock="true">
      <path
         transform="matrix(-0.4,0,0,-0.4,-4,0)"
         style="fill:context-stroke;fill-rule:evenodd;stroke:context-stroke;stroke-width:1pt"
         d="M 0,0 5,-5 -12.5,0 5,5 Z"
         id="path851" />
    </marker>
    <marker
       style="overflow:visible"
       id="marker1267"
       refX="0"
       refY="0"
       orient="auto"
       inkscape:stockid="Arrow1Mend"
       inkscape:isstock="true">
      <path
         transform="matrix(-0.4,0,0,-0.4,-4,0)"
         style="fill:context-stroke;fill-rule:evenodd;stroke:context-stroke;stroke-width:1pt"
         d="M 0,0 5,-5 -12.5,0 5,5 Z"
         id="path1265" />
    </marker>
    <marker
       style="overflow:visible"
       id="marker1271"
       refX="0"
       refY="0"
       orient="auto"
       inkscape:stockid="Arrow1Mend"
       inkscape:isstock="true">
      <path
         transform="matrix(-0.4,0,0,-0.4,-4,0)"
         style="fill:context-stroke;fill-rule:evenodd;stroke:context-stroke;stroke-width:1pt"
         d="M 0,0 5,-5 -12.5,0 5,5 Z"
         id="path1269" />
    </marker>
    <marker
       style="overflow:visible"
       id="marker1174"
       refX="0"
       refY="0"
       orient="auto"
       inkscape:stockid="Arrow1Mend"
       inkscape:isstock="true">
      <path
         transform="matrix(-0.4,0,0,-0.4,-4,0)"
         style="fill:context-stroke;fill-rule:evenodd;stroke:context-stroke;stroke-width:1pt"
         d="M 0,0 5,-5 -12.5,0 5,5 Z"
         id="path1172" />
    </marker>
    <marker
       style="overflow:visible"
       id="marker1194"
       refX="0"
       refY="0"
       orient="auto"
       inkscape:stockid="Arrow1Mend"
       inkscape:isstock="true">
      <path
         transform="matrix(-0.4,0,0,-0.4,-4,0)"
         style="fill:context-stroke;fill-rule:evenodd;stroke:context-stroke;stroke-width:1pt"
         d="M 0,0 5,-5 -12.5,0 5,5 Z"
         id="path1192" />
    </marker>
    <marker
       style="overflow:visible"
       id="marker1184"
       refX="0"
       refY="0"
       orient="auto"
       inkscape:stockid="Arrow1Mend"
       inkscape:isstock="true">
      <path
         transform="matrix(-0.4,0,0,-0.4,-4,0)"
         style="fill:context-stroke;fill-rule:evenodd;stroke:context-stroke;stroke-width:1pt"
         d="M 0,0 5,-5 -12.5,0 5,5 Z"
         id="path1182" />
    </marker>
    <marker
       style="overflow:visible"
       id="marker1281"
       refX="0"
       refY="0"
       orient="auto"
       inkscape:stockid="Arrow1Mend"
       inkscape:isstock="true">
      <path
         transform="matrix(-0.4,0,0,-0.4,-4,0)"
         style="fill:context-stroke;fill-rule:evenodd;stroke:context-stroke;stroke-width:1pt"
         d="M 0,0 5,-5 -12.5,0 5,5 Z"
         id="path1279" />
    </marker>
    <marker
       style="overflow:visible"
       id="marker1285"
       refX="0"
       refY="0"
       orient="auto"
       inkscape:stockid="Arrow1Mend"
       inkscape:isstock="true">
      <path
         transform="matrix(-0.4,0,0,-0.4,-4,0)"
         style="fill:context-stroke;fill-rule:evenodd;stroke:context-stroke;stroke-width:1pt"
         d="M 0,0 5,-5 -12.5,0 5,5 Z"
         id="path1283" />
    </marker>
    <marker
       style="overflow:visible"
       id="marker1204"
       refX="0"
       refY="0"
       orient="auto"
       inkscape:stockid="Arrow1Mend"
       inkscape:isstock="true">
      <path
         transform="matrix(-0.4,0,0,-0.4,-4,0)"
         style="fill:context-stroke;fill-rule:evenodd;stroke:context-stroke;stroke-width:1pt"
         d="M 0,0 5,-5 -12.5,0 5,5 Z"
         id="path1202" />
    </marker>
    <marker
       style="overflow:visible"
       id="marker1156"
       refX="0"
       refY="0"
       orient="auto"
       inkscape:stockid="Arrow2Mend"
       inkscape:isstock="true">
      <path
         transform="scale(-0.6)"
         d="M 8.7185878,4.0337352 -2.2072895,0.01601326 8.7185884,-4.0017078 c -1.7454984,2.3720609 -1.7354408,5.6174519 -6e-7,8.035443 z"
         style="fill:context-stroke;fill-rule:evenodd;stroke:context-stroke;stroke-width:0.625;stroke-linejoin:round"
         id="path1154" />
    </marker>
    <marker
       style="overflow:visible"
       id="marker1224"
       refX="0"
       refY="0"
       orient="auto"
       inkscape:stockid="Arrow1Mend"
       inkscape:isstock="true">
      <path
         transform="matrix(-0.4,0,0,-0.4,-4,0)"
         style="fill:context-stroke;fill-rule:evenodd;stroke:context-stroke;stroke-width:1pt"
         d="M 0,0 5,-5 -12.5,0 5,5 Z"
         id="path1222" />
    </marker>
    <marker
       style="overflow:visible"
       id="Arrow2Mend"
       refX="0"
       refY="0"
       orient="auto"
       inkscape:stockid="Arrow2Mend"
       inkscape:isstock="true">
      <path
         transform="scale(-0.6)"
         d="M 8.7185878,4.0337352 -2.2072895,0.01601326 8.7185884,-4.0017078 c -1.7454984,2.3720609 -1.7354408,5.6174519 -6e-7,8.035443 z"
         style="fill:context-stroke;fill-rule:evenodd;stroke:context-stroke;stroke-width:0.625;stroke-linejoin:round"
         id="path869" />
    </marker>
    <marker
       style="overflow:visible"
       id="marker1297"
       refX="0"
       refY="0"
       orient="auto"
       inkscape:stockid="Arrow1Mend"
       inkscape:isstock="true">
      <path
         transform="matrix(-0.4,0,0,-0.4,-4,0)"
         style="fill:context-stroke;fill-rule:evenodd;stroke:context-stroke;stroke-width:1pt"
         d="M 0,0 5,-5 -12.5,0 5,5 Z"
         id="path1295" />
    </marker>
    <marker
       style="overflow:visible"
       id="marker1301"
       refX="0"
       refY="0"
       orient="auto"
       inkscape:stockid="Arrow1Mend"
       inkscape:isstock="true">
      <path
         transform="matrix(-0.4,0,0,-0.4,-4,0)"
         style="fill:context-stroke;fill-rule:evenodd;stroke:context-stroke;stroke-width:1pt"
         d="M 0,0 5,-5 -12.5,0 5,5 Z"
         id="path1299" />
    </marker>
    <marker
       style="overflow:visible"
       id="marker1305"
       refX="0"
       refY="0"
       orient="auto"
       inkscape:stockid="Arrow1Mend"
       inkscape:isstock="true">
      <path
         transform="matrix(-0.4,0,0,-0.4,-4,0)"
         style="fill:context-stroke;fill-rule:evenodd;stroke:context-stroke;stroke-width:1pt"
         d="M 0,0 5,-5 -12.5,0 5,5 Z"
         id="path1303" />
    </marker>
  </defs>
  <sodipodi:namedview
     pagecolor="#ffffff"
     bordercolor="#666666"
     borderopacity="1"
     objecttolerance="10"
     gridtolerance="10"
     guidetolerance="10"
     inkscape:pageopacity="0"
     inkscape:pageshadow="2"
     inkscape:window-width="1679"
     inkscape:window-height="842"
     id="namedview1669"
     showgrid="false"
     inkscape:zoom="0.58598931"
     inkscape:cx="602.40007"
     inkscape:cy="376.28673"
     inkscape:window-x="236"
     inkscape:window-y="96"
     inkscape:window-maximized="0"
     inkscape:current-layer="svg1667"
     inkscape:pagecheckerboard="0"
     inkscape:document-units="cm" />
  <g
     id="Background">
    <text
       font-size="12.8px"
       style="font-style:normal;font-weight:700;font-family:serif;text-anchor:start;fill:#000000;fill-opacity:1;stroke:none"
       x="400"
       y="476.04999"
       id="text1624"><tspan
         x="400"
         y="476.04999"
         id="tspan1622">org.bzdev.base</tspan></text>
    <text
       font-size="12.8px"
       style="font-style:normal;font-weight:700;font-family:serif;text-anchor:start;fill:#000000;fill-opacity:1;stroke:none"
       x="115"
       y="373.04999"
       id="text1628"><tspan
         x="115"
         y="373.04999"
         id="tspan1626">org.bzdev.obnaming</tspan></text>
    <text
       font-size="12.8px"
       style="font-style:normal;font-weight:700;font-family:serif;text-anchor:start;fill:#000000;fill-opacity:1;stroke:none"
       x="408"
       y="368.04999"
       id="text1632"><tspan
         x="408"
         y="368.04999"
         id="tspan1630">org.bzdev.graphics</tspan></text>
    <text
       font-size="12.8px"
       style="font-style:normal;font-weight:700;font-family:serif;text-anchor:start;fill:#000000;fill-opacity:1;stroke:none"
       x="618"
       y="412.04999"
       id="text1636"><tspan
         x="618"
         y="412.04999"
         id="tspan1634">org.bzdev.ejws</tspan></text>
    <text
       font-size="12.8px"
       style="font-style:normal;font-weight:700;font-family:serif;text-anchor:start;fill:#000000;fill-opacity:1;stroke:none"
       x="190"
       y="301.04999"
       id="text1640"><tspan
         x="190"
         y="301.04999"
         id="tspan1638">org.bzdev.devqsim</tspan></text>
    <text
       font-size="12.8px"
       style="font-style:normal;font-weight:700;font-family:serif;text-anchor:start;fill:#000000;fill-opacity:1;stroke:none"
       x="405"
       y="203.05"
       id="text1644"><tspan
         x="405"
         y="203.05"
         id="tspan1642">org.bzdev.anim2d</tspan></text>
    <text
       font-size="12.8px"
       style="font-style:normal;font-weight:700;font-family:serif;text-anchor:start;fill:#000000;fill-opacity:1;stroke:none"
       x="251"
       y="203.05"
       id="text1648"><tspan
         x="251"
         y="203.05"
         id="tspan1646">org.bzdev.drama</tspan></text>
    <text
       font-size="12.8px"
       style="font-style:normal;font-weight:700;font-family:serif;text-anchor:start;fill:#000000;fill-opacity:1;stroke:none"
       x="567"
       y="103.05"
       id="text1652"><tspan
         x="567"
         y="103.05"
         id="tspan1650">org.bzdev.p3d</tspan></text>
    <text
       font-size="12.7998px"
       style="font-style:normal;font-weight:normal;font-family:sans-serif;text-anchor:start;fill:#000000;fill-opacity:1;stroke:none"
       x="517"
       y="393"
       id="text1656"><tspan
         x="517"
         y="393"
         id="tspan1654" /></text>
    <text
       font-size="12.8px"
       style="font-style:normal;font-weight:700;font-family:sans-serif;text-anchor:start;fill:#000000;fill-opacity:1;stroke:none"
       x="529"
       y="293"
       id="text1660"><tspan
         x="529"
         y="293"
         id="tspan1658">org.bzdev.desktop</tspan></text>
    <text
       font-size="12.8px"
       style="font-style:normal;font-weight:700;font-family:sans-serif;text-anchor:start;fill:#000000;fill-opacity:1;stroke:none"
       x="267"
       y="427"
       id="text1664"><tspan
         x="267"
         y="427"
         id="tspan1662">org.bzdev.math</tspan></text>
  </g>
  <text
     xml:space="preserve"
     style="font-style:normal;font-variant:normal;font-weight:bold;font-stretch:normal;font-size:12.8157px;line-height:1.25;font-family:sans-serif;-inkscape-font-specification:'sans-serif, Bold';font-variant-ligatures:normal;font-variant-caps:normal;font-variant-numeric:normal;font-variant-east-asian:normal;text-decoration:none;text-decoration-line:none;text-decoration-color:#000000;letter-spacing:0px;word-spacing:0px;fill:#000000;stroke-width:0.518071"
     x="533.38562"
     y="387.90164"
     id="text10569"><tspan
       sodipodi:role="line"
       id="tspan10923"
       x="533.38562"
       y="387.90164" /></text>
  <text
     xml:space="preserve"
     style="font-weight:bold;font-size:6.21685px;line-height:1.25;font-family:sans-serif;-inkscape-font-specification:'sans-serif Bold';text-decoration:none;text-decoration-line:none;text-decoration-color:#000000;letter-spacing:0px;word-spacing:0px;fill:#000000;stroke-width:0.518071"
     x="485.42499"
     y="432.41916"
     id="text39563"><tspan
       sodipodi:role="line"
       style="font-style:normal;font-variant:normal;font-weight:bold;font-stretch:normal;font-size:12.7998px;font-family:sans-serif;-inkscape-font-specification:'sans-serif, Bold';font-variant-ligatures:normal;font-variant-caps:normal;font-variant-numeric:normal;font-variant-east-asian:normal;stroke-width:0.518071"
       x="485.42499"
       y="432.41916"
       id="tspan40703">org.bzdev.servlets</tspan></text>
  <path
     id="line4"
     d="m 473.76906,372.24862 c 0.25731,10.69714 0.51461,21.39428 -2.98111,28.81751 -3.49574,7.42324 -10.74447,11.57256 -20.37102,14.40875 -9.62654,2.83623 -21.63089,4.35931 -32.79234,4.96856 -11.16147,0.60923 -21.48006,0.30461 -31.79866,0"
     fill-rule="evenodd"
     style="fill:none;stroke:none;stroke-width:0.993709" />
  <path
     id="lilne1"
     d="m 610.90073,109.90978 c -2.24987,5.48111 -4.49971,10.9622 -8.97618,16.36339 -4.47646,5.40116 -11.17953,10.72245 -23.31933,14.44156 -12.13979,3.71911 -29.71631,5.83606 -43.22629,9.44021 -13.50995,3.60416 -22.95337,8.69551 -28.32065,14.90561 -5.36729,6.21012 -6.65847,13.53899 -7.94966,20.86788"
     fill-rule="evenodd"
     style="fill:none;stroke:#000000;stroke-width:1.98742;stroke-linecap:butt;stroke-linejoin:bevel;stroke-miterlimit:10;stroke-dashoffset:0;marker-end:url(#marker1214)" />
  <path
     id="line10"
     d="m 470.29109,208.7837 0.99371,141.10649"
     fill-rule="evenodd"
     style="fill:none;stroke:#000000;stroke-width:1.98742;stroke-linecap:butt;stroke-linejoin:bevel;stroke-miterlimit:10;stroke-dashoffset:0;marker-end:url(#marker1214)" />
  <path
     id="line11"
     d="m 437.99558,208.28685 c 0.27816,11.61306 0.55631,23.22614 -1.49055,32.79236 -2.04685,9.56619 -6.41869,17.08557 -11.42764,23.84897 -5.00895,6.76339 -10.65502,12.77081 -19.87415,17.88674 -9.21915,5.11593 -22.01134,9.34037 -35.27663,11.42764 -13.26528,2.08725 -27.00364,2.03734 -40.74201,1.98743"
     fill-rule="evenodd"
     style="fill:none;stroke:#000000;stroke-width:1.98742;stroke-linecap:butt;stroke-linejoin:bevel;stroke-miterlimit:10;stroke-dashoffset:0;marker-end:url(#marker1214)" />
  <path
     id="line12"
     d="m 246.21001,198.84662 c -9.41539,-0.33803 -18.83076,-0.67606 -29.81124,0 -10.98046,0.67605 -23.52602,2.36622 -31.79864,8.44652 -8.2726,6.08029 -12.27229,16.55075 -14.40875,27.82381 -2.13648,11.27307 -2.40976,23.34874 -2.48427,40.24517 -0.0746,16.89642 0.0496,38.61361 0,52.66651 -0.0497,14.05289 -0.27329,20.44148 -0.49685,26.83009"
     fill-rule="evenodd"
     style="fill:none;stroke:#000000;stroke-width:1.98742;stroke-linecap:butt;stroke-linejoin:bevel;stroke-miterlimit:10;stroke-dashoffset:0;marker-end:url(#Arrow2Mend)" />
  <path
     id="line13"
     d="M 303.34819,303.68278 V 408.51894"
     fill-rule="evenodd"
     style="fill:none;stroke:#000000;stroke-width:1.98742;stroke-linecap:butt;stroke-linejoin:bevel;stroke-miterlimit:10;stroke-dashoffset:0;marker-end:url(#marker1224)" />
  <path
     id="line14"
     d="m 403.21582,188.90955 c -4.16142,-6.38292 -8.32286,-12.76582 -15.89932,-18.38359 -7.57648,-5.61778 -18.56799,-10.47041 -26.33325,-12.91821 -7.76528,-2.44779 -12.3043,-2.49075 -27.82382,-2.98112 -15.51952,-0.49038 -42.01953,-1.42814 -66.57842,-0.99372 -24.55888,0.43446 -47.17659,2.24111 -65.58469,4.47169 -18.40812,2.2306 -32.60658,4.88512 -40.74202,15.89934 -8.13543,11.01419 -10.20784,30.38807 -10.9308,44.21998 -0.72294,13.83192 -0.0964,22.12185 0,31.30179 0.0966,9.17994 -0.3371,19.24991 -0.49684,31.30179 -0.15975,12.05191 -0.0456,26.08574 0,38.7546 0.0456,12.66886 0.0228,23.97274 0,35.27662"
     fill-rule="evenodd"
     style="fill:none;stroke:#000000;stroke-width:1.98742;stroke-linecap:butt;stroke-linejoin:bevel;stroke-miterlimit:10;stroke-dashoffset:0;marker-end:url(#marker1156)" />
  <path
     id="line15"
     d="m 627.79375,109.41293 c 0.28633,11.15215 0.57264,22.30429 -1.49055,33.78606 -2.06322,11.48176 -6.476,23.29316 -12.42136,34.28291 -5.94535,10.98978 -13.42333,21.15792 -30.30808,28.81752 -16.88475,7.65962 -43.17624,12.8107 -66.57842,15.40246 -23.40216,2.5918 -43.91497,2.62427 -67.07527,2.48429 -23.16028,-0.13997 -48.96805,-0.45242 -65.08784,0.49685 -16.11977,0.94927 -22.55155,3.16026 -30.30808,8.44651 -7.75654,5.28626 -16.83785,13.64781 -23.35213,22.35842 -6.51429,8.71064 -10.46151,17.77038 -14.40876,26.83012"
     fill-rule="evenodd"
     style="fill:none;stroke:#000000;stroke-width:1.98742;stroke-linecap:butt;stroke-linejoin:bevel;stroke-miterlimit:10;stroke-dashoffset:0;marker-end:url(#marker1204)" />
  <path
     id="line16"
     d="m 648.16477,110.40664 c 0.10101,15.27668 0.20208,30.55337 -0.49685,47.69796 -0.69896,17.14461 -2.19789,36.15718 -13.91191,48.19482 -11.71406,12.03766 -33.64321,17.10042 -50.67911,21.86157 -17.0359,4.76118 -29.17852,9.22073 -40.74201,13.91192 -11.56351,4.6912 -22.54787,9.61396 -29.81124,16.39616 -7.26334,6.78222 -10.80567,15.42382 -12.42133,30.30808 -1.61566,14.8843 -1.30469,36.01124 -0.9937,57.13822"
     fill-rule="evenodd"
     style="fill:none;stroke:#000000;stroke-width:1.98742;stroke-linecap:butt;stroke-linejoin:bevel;stroke-miterlimit:10;stroke-dashoffset:0;marker-end:url(#marker1214)" />
  <path
     id="line2"
     d="m 327.19718,430.3805 c 4.43028,13.00102 8.86057,26.00204 19.87417,32.79236 11.01358,6.79034 28.6105,7.37 46.20739,7.94966"
     fill-rule="evenodd"
     style="fill:none;stroke:#000000;stroke-width:1.98742;stroke-linecap:butt;stroke-linejoin:bevel;stroke-miterlimit:10;stroke-dashoffset:0;marker-end:url(#marker1214)" />
  <path
     id="line3"
     d="m 186.0907,375.7266 c -0.28983,7.42913 -0.57966,14.85828 3.47798,22.35841 4.05763,7.50013 12.46273,15.07125 21.3647,18.88045 8.90196,3.80921 18.30079,3.85652 26.83013,3.97483 8.52931,0.11825 16.18914,0.30756 23.84897,0.49685"
     fill-rule="evenodd"
     style="fill:none;stroke:#000000;stroke-width:1.98742;stroke-linecap:butt;stroke-linejoin:bevel;stroke-miterlimit:10;stroke-dashoffset:0;marker-end:url(#marker1184)" />
  <path
     id="line5"
     d="m 400.73155,362.80838 c -18.29486,-0.0797 -36.58974,-0.15969 -49.18853,0 -12.5988,0.15971 -19.5015,0.55897 -28.32065,1.49058 -8.81916,0.9316 -19.55476,2.39552 -29.31439,2.98111 -9.75964,0.58559 -18.5433,0.2928 -27.32697,0"
     fill-rule="evenodd"
     style="fill:none;stroke:#000000;stroke-width:1.98742;stroke-linecap:butt;stroke-linejoin:bevel;stroke-miterlimit:10;stroke-dashoffset:0;marker-end:url(#marker1194)" />
  <path
     id="line6"
     d="m 259.1282,305.6702 c -3.63767,5.81437 -7.27535,11.62875 -12.42134,15.40247 -5.14599,3.77373 -11.80028,5.50679 -20.86786,6.95596 -9.06757,1.44915 -20.54846,2.61438 -27.32697,6.95595 -6.77849,4.34155 -8.85464,11.85942 -10.93078,19.37729"
     fill-rule="evenodd"
     style="fill:none;stroke:#000000;stroke-width:1.98742;stroke-linecap:butt;stroke-linejoin:bevel;stroke-miterlimit:10;stroke-dashoffset:0;marker-end:url(#marker1174)" />
  <path
     id="line7"
     d="m 672.05764,416.46689 c 0.41153,14.01522 -5.73594,27.4903 -15.70878,37.46089 -9.97286,9.97058 -23.45101,16.11679 -37.46942,16.20212 l -104.29794,-0.098"
     fill-rule="evenodd"
     style="fill:none;stroke:#000000;stroke-width:1.98742;stroke-linecap:butt;stroke-linejoin:bevel;stroke-miterlimit:10;stroke-dashoffset:0;marker-end:url(#marker1214)" />
  <path
     id="line8"
     d="m 597.48566,297.72054 c 0.44166,7.79509 0.88329,15.59017 0,26.83011 -0.88329,11.23993 -3.09152,25.92472 -10.93077,32.79236 -7.83927,6.86762 -21.3095,5.91807 -34.77976,4.96852"
     fill-rule="evenodd"
     style="fill:none;stroke:#000000;stroke-width:1.98742;stroke-linecap:butt;stroke-linejoin:bevel;stroke-miterlimit:10;stroke-dashoffset:0;marker-end:url(#marker1214)" />
  <path
     id="line9"
     d="m 311.29785,207.29314 c 0.48208,8.62396 0.96414,17.24792 -3.47798,23.84898 -4.4421,6.60106 -13.80839,11.17921 -22.85527,15.89933 -9.04687,4.7201 -17.77434,9.58218 -21.86156,16.39616 -4.08722,6.81401 -3.53418,15.57993 -2.98113,24.34584"
     fill-rule="evenodd"
     style="fill:none;stroke:#000000;stroke-width:1.98742;stroke-linecap:butt;stroke-linejoin:bevel;stroke-miterlimit:10;stroke-dashoffset:0;marker-end:url(#Arrow1Mend)" />
  <path
     id="lline14"
     d="m 557.73736,98.979018 c -29.75662,-0.0195 -59.51321,-0.0391 -85.45886,0 -25.94563,0.0391 -48.0803,0.13661 -94.89909,0 -46.81877,-0.136612 -118.32169,-0.507392 -159.98693,0 -41.66522,0.50737 -53.49277,1.892912 -64.09413,10.930762 -10.60138,9.03788 -19.97656,25.72808 -24.34584,49.18854 -4.36928,23.46045 -3.73263,53.69117 -3.47799,87.44627 0.25466,33.75511 0.12732,71.03464 0,108.31413"
     fill-rule="evenodd"
     style="fill:none;stroke:#000000;stroke-width:1.98742;stroke-linecap:butt;stroke-linejoin:bevel;stroke-miterlimit:10;stroke-dashoffset:0;marker-end:url(#marker1146)" />
  <path
     id="path17"
     d="m 472.77536,373.73917 c 1.01578,8.63421 2.03158,17.26845 -0.99371,27.82381 -3.02528,10.55539 -10.09166,23.03196 -12.9182,32.79235 -2.82654,9.76042 -1.41327,16.80472 0,23.84899"
     fill-rule="evenodd"
     style="fill:none;stroke:#000000;stroke-width:1.98742;stroke-linecap:butt;stroke-linejoin:bevel;stroke-miterlimit:10;stroke-dashoffset:0;marker-end:url(#marker1214)" />
  <path
     id="path18"
     d="m 542.62721,435.64526 c -9.05954,4.52393 -18.11908,9.0479 -26.8555,13.77674 -8.7364,4.72883 -17.14973,9.66254 -25.56306,14.59624"
     fill-rule="evenodd"
     style="fill:none;stroke:#000000;stroke-width:2.16423;stroke-linecap:butt;stroke-linejoin:bevel;stroke-miterlimit:10;stroke-dashoffset:0;marker-end:url(#marker1214)" />
</svg>
