<?xml version="1.0" encoding="UTF-8" standalone="no"?>
<svg
   xmlns:dc="http://purl.org/dc/elements/1.1/"
   xmlns:cc="http://creativecommons.org/ns#"
   xmlns:rdf="http://www.w3.org/1999/02/22-rdf-syntax-ns#"
   xmlns:svg="http://www.w3.org/2000/svg"
   xmlns="http://www.w3.org/2000/svg"
   xmlns:sodipodi="http://sodipodi.sourceforge.net/DTD/sodipodi-0.dtd"
   xmlns:inkscape="http://www.inkscape.org/namespaces/inkscape"
   width="31cm"
   height="20cm"
   viewBox="115 91 607 389"
   version="1.1"
   id="svg1667"
   sodipodi:docname="modules.svg"
   inkscape:version="0.92.4 (5da689c313, 2019-01-14)">
  <metadata
     id="metadata1673">
    <rdf:RDF>
      <cc:Work
         rdf:about="">
        <dc:format>image/svg+xml</dc:format>
        <dc:type
           rdf:resource="http://purl.org/dc/dcmitype/StillImage" />
      </cc:Work>
    </rdf:RDF>
  </metadata>
  <defs
     id="defs1671">
    <marker
       inkscape:isstock="true"
       style="overflow:visible"
       id="marker2093"
       refX="0"
       refY="0"
       orient="auto"
       inkscape:stockid="Arrow2Mend">
      <path
         inkscape:connector-curvature="0"
         transform="scale(-0.6)"
         d="M 8.7185878,4.0337352 -2.2072895,0.01601326 8.7185884,-4.0017078 c -1.7454984,2.3720609 -1.7354408,5.6174519 -6e-7,8.035443 z"
         style="fill:#000000;fill-opacity:1;fill-rule:evenodd;stroke:#000000;stroke-width:0.625;stroke-linejoin:round;stroke-opacity:1"
         id="path2091" />
    </marker>
    <marker
       inkscape:stockid="Arrow2Mend"
       orient="auto"
       refY="0"
       refX="0"
       id="Arrow2Mend"
       style="overflow:visible"
       inkscape:isstock="true"
       inkscape:collect="always">
      <path
         inkscape:connector-curvature="0"
         id="path876"
         style="fill:#000000;fill-opacity:1;fill-rule:evenodd;stroke:#000000;stroke-width:0.625;stroke-linejoin:round;stroke-opacity:1"
         d="M 8.7185878,4.0337352 -2.2072895,0.01601326 8.7185884,-4.0017078 c -1.7454984,2.3720609 -1.7354408,5.6174519 -6e-7,8.035443 z"
         transform="scale(-0.6)" />
    </marker>
    <marker
       inkscape:isstock="true"
       style="overflow:visible"
       id="marker1133"
       refX="0"
       refY="0"
       orient="auto"
       inkscape:stockid="Arrow2Mend">
      <path
         inkscape:connector-curvature="0"
         transform="scale(-0.6)"
         d="M 8.7185878,4.0337352 -2.2072895,0.01601326 8.7185884,-4.0017078 c -1.7454984,2.3720609 -1.7354408,5.6174519 -6e-7,8.035443 z"
         style="fill:#000000;fill-opacity:1;fill-rule:evenodd;stroke:#000000;stroke-width:0.625;stroke-linejoin:round;stroke-opacity:1"
         id="path1131" />
    </marker>
    <marker
       inkscape:isstock="true"
       style="overflow:visible"
       id="marker1155"
       refX="0"
       refY="0"
       orient="auto"
       inkscape:stockid="Arrow2Mend">
      <path
         inkscape:connector-curvature="0"
         transform="scale(-0.6)"
         d="M 8.7185878,4.0337352 -2.2072895,0.01601326 8.7185884,-4.0017078 c -1.7454984,2.3720609 -1.7354408,5.6174519 -6e-7,8.035443 z"
         style="fill:#000000;fill-opacity:1;fill-rule:evenodd;stroke:#000000;stroke-width:0.625;stroke-linejoin:round;stroke-opacity:1"
         id="path1153" />
    </marker>
    <marker
       inkscape:isstock="true"
       style="overflow:visible"
       id="marker1183"
       refX="0"
       refY="0"
       orient="auto"
       inkscape:stockid="Arrow2Mend">
      <path
         inkscape:connector-curvature="0"
         transform="scale(-0.6)"
         d="M 8.7185878,4.0337352 -2.2072895,0.01601326 8.7185884,-4.0017078 c -1.7454984,2.3720609 -1.7354408,5.6174519 -6e-7,8.035443 z"
         style="fill:#000000;fill-opacity:1;fill-rule:evenodd;stroke:#000000;stroke-width:0.625;stroke-linejoin:round;stroke-opacity:1"
         id="path1181" />
    </marker>
    <marker
       inkscape:isstock="true"
       style="overflow:visible"
       id="marker1217"
       refX="0"
       refY="0"
       orient="auto"
       inkscape:stockid="Arrow2Mend">
      <path
         inkscape:connector-curvature="0"
         transform="scale(-0.6)"
         d="M 8.7185878,4.0337352 -2.2072895,0.01601326 8.7185884,-4.0017078 c -1.7454984,2.3720609 -1.7354408,5.6174519 -6e-7,8.035443 z"
         style="fill:#000000;fill-opacity:1;fill-rule:evenodd;stroke:#000000;stroke-width:0.625;stroke-linejoin:round;stroke-opacity:1"
         id="path1215" />
    </marker>
    <marker
       inkscape:isstock="true"
       style="overflow:visible"
       id="marker1257"
       refX="0"
       refY="0"
       orient="auto"
       inkscape:stockid="Arrow2Mend">
      <path
         inkscape:connector-curvature="0"
         transform="scale(-0.6)"
         d="M 8.7185878,4.0337352 -2.2072895,0.01601326 8.7185884,-4.0017078 c -1.7454984,2.3720609 -1.7354408,5.6174519 -6e-7,8.035443 z"
         style="fill:#000000;fill-opacity:1;fill-rule:evenodd;stroke:#000000;stroke-width:0.625;stroke-linejoin:round;stroke-opacity:1"
         id="path1255" />
    </marker>
    <marker
       inkscape:isstock="true"
       style="overflow:visible"
       id="marker1303"
       refX="0"
       refY="0"
       orient="auto"
       inkscape:stockid="Arrow2Mend">
      <path
         inkscape:connector-curvature="0"
         transform="scale(-0.6)"
         d="M 8.7185878,4.0337352 -2.2072895,0.01601326 8.7185884,-4.0017078 c -1.7454984,2.3720609 -1.7354408,5.6174519 -6e-7,8.035443 z"
         style="fill:#000000;fill-opacity:1;fill-rule:evenodd;stroke:#000000;stroke-width:0.625;stroke-linejoin:round;stroke-opacity:1"
         id="path1301" />
    </marker>
    <marker
       inkscape:isstock="true"
       style="overflow:visible"
       id="marker1355"
       refX="0"
       refY="0"
       orient="auto"
       inkscape:stockid="Arrow2Mend">
      <path
         inkscape:connector-curvature="0"
         transform="scale(-0.6)"
         d="M 8.7185878,4.0337352 -2.2072895,0.01601326 8.7185884,-4.0017078 c -1.7454984,2.3720609 -1.7354408,5.6174519 -6e-7,8.035443 z"
         style="fill:#000000;fill-opacity:1;fill-rule:evenodd;stroke:#000000;stroke-width:0.625;stroke-linejoin:round;stroke-opacity:1"
         id="path1353" />
    </marker>
    <marker
       inkscape:isstock="true"
       style="overflow:visible"
       id="marker1413"
       refX="0"
       refY="0"
       orient="auto"
       inkscape:stockid="Arrow2Mend">
      <path
         inkscape:connector-curvature="0"
         transform="scale(-0.6)"
         d="M 8.7185878,4.0337352 -2.2072895,0.01601326 8.7185884,-4.0017078 c -1.7454984,2.3720609 -1.7354408,5.6174519 -6e-7,8.035443 z"
         style="fill:#000000;fill-opacity:1;fill-rule:evenodd;stroke:#000000;stroke-width:0.625;stroke-linejoin:round;stroke-opacity:1"
         id="path1411" />
    </marker>
    <marker
       inkscape:isstock="true"
       style="overflow:visible"
       id="marker1477"
       refX="0"
       refY="0"
       orient="auto"
       inkscape:stockid="Arrow2Mend">
      <path
         inkscape:connector-curvature="0"
         transform="scale(-0.6)"
         d="M 8.7185878,4.0337352 -2.2072895,0.01601326 8.7185884,-4.0017078 c -1.7454984,2.3720609 -1.7354408,5.6174519 -6e-7,8.035443 z"
         style="fill:#000000;fill-opacity:1;fill-rule:evenodd;stroke:#000000;stroke-width:0.625;stroke-linejoin:round;stroke-opacity:1"
         id="path1475" />
    </marker>
    <marker
       inkscape:isstock="true"
       style="overflow:visible"
       id="marker1547"
       refX="0"
       refY="0"
       orient="auto"
       inkscape:stockid="Arrow2Mend">
      <path
         inkscape:connector-curvature="0"
         transform="scale(-0.6)"
         d="M 8.7185878,4.0337352 -2.2072895,0.01601326 8.7185884,-4.0017078 c -1.7454984,2.3720609 -1.7354408,5.6174519 -6e-7,8.035443 z"
         style="fill:#000000;fill-opacity:1;fill-rule:evenodd;stroke:#000000;stroke-width:0.625;stroke-linejoin:round;stroke-opacity:1"
         id="path1545" />
    </marker>
    <marker
       inkscape:isstock="true"
       style="overflow:visible"
       id="marker1623"
       refX="0"
       refY="0"
       orient="auto"
       inkscape:stockid="Arrow2Mend">
      <path
         inkscape:connector-curvature="0"
         transform="scale(-0.6)"
         d="M 8.7185878,4.0337352 -2.2072895,0.01601326 8.7185884,-4.0017078 c -1.7454984,2.3720609 -1.7354408,5.6174519 -6e-7,8.035443 z"
         style="fill:#000000;fill-opacity:1;fill-rule:evenodd;stroke:#000000;stroke-width:0.625;stroke-linejoin:round;stroke-opacity:1"
         id="path1621" />
    </marker>
    <marker
       inkscape:isstock="true"
       style="overflow:visible"
       id="marker1705"
       refX="0"
       refY="0"
       orient="auto"
       inkscape:stockid="Arrow2Mend">
      <path
         inkscape:connector-curvature="0"
         transform="scale(-0.6)"
         d="M 8.7185878,4.0337352 -2.2072895,0.01601326 8.7185884,-4.0017078 c -1.7454984,2.3720609 -1.7354408,5.6174519 -6e-7,8.035443 z"
         style="fill:#000000;fill-opacity:1;fill-rule:evenodd;stroke:#000000;stroke-width:0.625;stroke-linejoin:round;stroke-opacity:1"
         id="path1703" />
    </marker>
    <marker
       inkscape:isstock="true"
       style="overflow:visible"
       id="marker1793"
       refX="0"
       refY="0"
       orient="auto"
       inkscape:stockid="Arrow2Mend">
      <path
         inkscape:connector-curvature="0"
         transform="scale(-0.6)"
         d="M 8.7185878,4.0337352 -2.2072895,0.01601326 8.7185884,-4.0017078 c -1.7454984,2.3720609 -1.7354408,5.6174519 -6e-7,8.035443 z"
         style="fill:#000000;fill-opacity:1;fill-rule:evenodd;stroke:#000000;stroke-width:0.625;stroke-linejoin:round;stroke-opacity:1"
         id="path1791" />
    </marker>
    <marker
       inkscape:isstock="true"
       style="overflow:visible"
       id="marker1887"
       refX="0"
       refY="0"
       orient="auto"
       inkscape:stockid="Arrow2Mend">
      <path
         inkscape:connector-curvature="0"
         transform="scale(-0.6)"
         d="M 8.7185878,4.0337352 -2.2072895,0.01601326 8.7185884,-4.0017078 c -1.7454984,2.3720609 -1.7354408,5.6174519 -6e-7,8.035443 z"
         style="fill:#000000;fill-opacity:1;fill-rule:evenodd;stroke:#000000;stroke-width:0.625;stroke-linejoin:round;stroke-opacity:1"
         id="path1885" />
    </marker>
    <marker
       inkscape:isstock="true"
       style="overflow:visible"
       id="marker1987"
       refX="0"
       refY="0"
       orient="auto"
       inkscape:stockid="Arrow2Mend">
      <path
         inkscape:connector-curvature="0"
         transform="scale(-0.6)"
         d="M 8.7185878,4.0337352 -2.2072895,0.01601326 8.7185884,-4.0017078 c -1.7454984,2.3720609 -1.7354408,5.6174519 -6e-7,8.035443 z"
         style="fill:#000000;fill-opacity:1;fill-rule:evenodd;stroke:#000000;stroke-width:0.625;stroke-linejoin:round;stroke-opacity:1"
         id="path1985" />
    </marker>
  </defs>
  <sodipodi:namedview
     pagecolor="#ffffff"
     bordercolor="#666666"
     borderopacity="1"
     objecttolerance="10"
     gridtolerance="10"
     guidetolerance="10"
     inkscape:pageopacity="0"
     inkscape:pageshadow="2"
     inkscape:window-width="1141"
     inkscape:window-height="842"
     id="namedview1669"
     showgrid="false"
     inkscape:zoom="0.58598931"
     inkscape:cx="585.49503"
     inkscape:cy="376.77652"
     inkscape:window-x="580"
     inkscape:window-y="169"
     inkscape:window-maximized="0"
     inkscape:current-layer="svg1667" />
  <g
     id="Background">
    <text
       font-size="12.8"
       style="fill: #000000; fill-opacity: 1; stroke: none;text-anchor:start;font-family:serif;font-style:normal;font-weight:700"
       x="400"
       y="476.05"
       id="text1624">
      <tspan
         x="400"
         y="476.05"
         id="tspan1622">org.bzdev.base</tspan>
    </text>
    <text
       font-size="12.8"
       style="fill: #000000; fill-opacity: 1; stroke: none;text-anchor:start;font-family:serif;font-style:normal;font-weight:700"
       x="115"
       y="373.05"
       id="text1628">
      <tspan
         x="115"
         y="373.05"
         id="tspan1626">org.bzdev.obnaming</tspan>
    </text>
    <text
       font-size="12.8"
       style="fill: #000000; fill-opacity: 1; stroke: none;text-anchor:start;font-family:serif;font-style:normal;font-weight:700"
       x="408"
       y="368.05"
       id="text1632">
      <tspan
         x="408"
         y="368.05"
         id="tspan1630">org.bzdev.graphics</tspan>
    </text>
    <text
       font-size="12.8"
       style="fill: #000000; fill-opacity: 1; stroke: none;text-anchor:start;font-family:serif;font-style:normal;font-weight:700"
       x="618"
       y="412.05"
       id="text1636">
      <tspan
         x="618"
         y="412.05"
         id="tspan1634">org.bzdev.ejws</tspan>
    </text>
    <text
       font-size="12.8"
       style="fill: #000000; fill-opacity: 1; stroke: none;text-anchor:start;font-family:serif;font-style:normal;font-weight:700"
       x="190"
       y="301.05"
       id="text1640">
      <tspan
         x="190"
         y="301.05"
         id="tspan1638">org.bzdev.devqsim</tspan>
    </text>
    <text
       font-size="12.8"
       style="fill: #000000; fill-opacity: 1; stroke: none;text-anchor:start;font-family:serif;font-style:normal;font-weight:700"
       x="405"
       y="203.05"
       id="text1644">
      <tspan
         x="405"
         y="203.05"
         id="tspan1642">org.bzdev.anim2d</tspan>
    </text>
    <text
       font-size="12.8"
       style="fill: #000000; fill-opacity: 1; stroke: none;text-anchor:start;font-family:serif;font-style:normal;font-weight:700"
       x="251"
       y="203.05"
       id="text1648">
      <tspan
         x="251"
         y="203.05"
         id="tspan1646">org.bzdev.drama</tspan>
    </text>
    <text
       font-size="12.8"
       style="fill: #000000; fill-opacity: 1; stroke: none;text-anchor:start;font-family:serif;font-style:normal;font-weight:700"
       x="567"
       y="103.05"
       id="text1652">
      <tspan
         x="567"
         y="103.05"
         id="tspan1650">org.bzdev.p3d</tspan>
    </text>
    <text
       font-size="12.7998"
       style="fill: #000000; fill-opacity: 1; stroke: none;text-anchor:start;font-family:sans-serif;font-style:normal;font-weight:normal"
       x="517"
       y="393"
       id="text1656">
      <tspan
         x="517"
         y="393"
         id="tspan1654" />
    </text>
    <text
       font-size="12.8"
       style="fill: #000000; fill-opacity: 1; stroke: none;text-anchor:start;font-family:sans-serif;font-style:normal;font-weight:700"
       x="529"
       y="293"
       id="text1660">
      <tspan
         x="529"
         y="293"
         id="tspan1658">org.bzdev.desktop</tspan>
    </text>
    <text
       font-size="12.8"
       style="fill: #000000; fill-opacity: 1; stroke: none;text-anchor:start;font-family:sans-serif;font-style:normal;font-weight:700"
       x="267"
       y="427"
       id="text1664">
      <tspan
         x="267"
         y="427"
         id="tspan1662">org.bzdev.math</tspan>
    </text>
  </g>
  <g
     transform="matrix(0.99969455,0,0,0.99969455,116.05975,88.869389)"
     id="g1367">
    <path
       id="path2"
       style="fill:none;fill-opacity:1;fill-rule:evenodd;stroke:#000000;stroke-width:2;stroke-miterlimit:4;stroke-dasharray:none;stroke-opacity:1;marker-end:url(#marker2093)"
       d="m 359,284.5 c 0.25893,10.76488 0.51786,21.52976 -3,29 -3.51786,7.47024 -10.8125,11.64583 -20.5,14.5 -9.6875,2.85417 -21.76786,4.3869 -33,5 -11.23214,0.6131 -21.61607,0.30655 -32,0"
       inkscape:connector-curvature="0" />
    <path
       id="path4"
       style="fill:none;fill-rule:evenodd;stroke:#000000;stroke-width:2;stroke-linecap:butt;stroke-linejoin:bevel;stroke-miterlimit:10;stroke-dashoffset:0;stroke-opacity:1;marker-end:url(#Arrow2Mend)"
       d="m 497,20.5 c -2.2641,5.515804 -4.5282,11.031608 -9.03301,16.466991 C 483.46218,42.402375 476.71667,47.757338 464.5,51.5 452.28333,55.242662 434.59551,57.373024 421,61 c -13.59551,3.626976 -23.09872,8.750564 -28.5,15 -5.40128,6.249436 -6.70064,13.624718 -8,21"
       inkscape:connector-curvature="0" />
    <path
       id="path6"
       style="fill:none;fill-rule:evenodd;stroke:#000000;stroke-width:2;stroke-linecap:butt;stroke-linejoin:bevel;stroke-miterlimit:10;stroke-dashoffset:0;stroke-opacity:1;marker-end:url(#marker1133)"
       d="m 355.5,120 1,142"
       inkscape:connector-curvature="0" />
    <path
       id="path8"
       style="fill:none;fill-rule:evenodd;stroke:#000000;stroke-width:2;stroke-linecap:butt;stroke-linejoin:bevel;stroke-miterlimit:10;stroke-dashoffset:0;stroke-opacity:1;marker-end:url(#marker1155)"
       d="m 323,119.5 c 0.2799,11.6866 0.55981,23.37321 -1.5,33 -2.05981,9.62679 -6.45933,17.19378 -11.5,24 -5.04067,6.80622 -10.72249,12.85167 -20,18 -9.27751,5.14833 -22.15072,9.39952 -35.5,11.5 -13.34928,2.10048 -27.17464,2.05024 -41,2"
       inkscape:connector-curvature="0" />
    <path
       id="path10"
       style="fill:none;fill-rule:evenodd;stroke:#000000;stroke-width:2;stroke-linecap:butt;stroke-linejoin:bevel;stroke-miterlimit:10;stroke-dashoffset:0;stroke-opacity:1;marker-end:url(#marker1183)"
       d="m 130,110 c -9.475,-0.34017 -18.95,-0.68034 -30,0 -11.05,0.68034 -23.675,2.3812 -32,8.5 -8.325,6.1188 -12.35,16.65556 -14.5,28 -2.15,11.34444 -2.425,23.49658 -2.5,40.5 -0.075,17.00342 0.05,38.85812 0,53 -0.05,14.14188 -0.275,20.57094 -0.5,27"
       inkscape:connector-curvature="0" />
    <path
       id="path12"
       style="fill:none;fill-rule:evenodd;stroke:#000000;stroke-width:2;stroke-linecap:butt;stroke-linejoin:bevel;stroke-miterlimit:10;stroke-dashoffset:0;stroke-opacity:1;marker-end:url(#marker1217)"
       d="M 187.5,215.5 V 321"
       inkscape:connector-curvature="0" />
    <path
       id="path14"
       style="fill:none;fill-rule:evenodd;stroke:#000000;stroke-width:2;stroke-linecap:butt;stroke-linejoin:bevel;stroke-miterlimit:10;stroke-dashoffset:0;stroke-opacity:1;marker-end:url(#marker1257)"
       d="m 288,100 c -4.18778,-6.423328 -8.37555,-12.846656 -16,-18.5 -7.62445,-5.653344 -18.68556,-10.536704 -26.5,-13 -7.81444,-2.463296 -12.38221,-2.506527 -28,-3 -15.61779,-0.493473 -42.28561,-1.437189 -67,-1 -24.71439,0.437189 -47.47533,2.255284 -66,4.5 -18.524666,2.244716 -32.813049,4.916053 -41,16 -8.186951,11.083947 -10.27247,30.58051 -11,44.5 -0.72753,13.91949 -0.09707,22.26193 0,31.5 0.09707,9.23807 -0.33925,19.37179 -0.5,31.5 -0.16075,12.12821 -0.04593,26.25092 0,39 0.04593,12.74908 0.02296,24.12454 0,35.5"
       inkscape:connector-curvature="0" />
    <path
       id="path16"
       style="fill:none;fill-rule:evenodd;stroke:#000000;stroke-width:2;stroke-linecap:butt;stroke-linejoin:bevel;stroke-miterlimit:10;stroke-dashoffset:0;stroke-opacity:1;marker-end:url(#marker1303)"
       d="m 514,20 c 0.28814,11.222765 0.57628,22.44553 -1.5,34 -2.07628,11.55447 -6.51699,23.440646 -12.5,34.5 -5.98301,11.059354 -13.50834,21.29189 -30.5,29 -16.99166,7.70811 -43.44965,12.89181 -67,15.5 -23.55035,2.60819 -44.19305,2.64087 -67.5,2.5 -23.30695,-0.14087 -49.27815,-0.45528 -65.5,0.5 -16.22185,0.95528 -22.69434,3.18027 -30.5,8.5 -7.80566,5.31973 -16.94447,13.73421 -23.5,22.5 -6.55553,8.76579 -10.52776,17.8829 -14.5,27"
       inkscape:connector-curvature="0" />
    <path
       id="path18"
       style="fill:none;fill-rule:evenodd;stroke:#000000;stroke-width:2;stroke-linecap:butt;stroke-linejoin:bevel;stroke-miterlimit:10;stroke-dashoffset:0;stroke-opacity:1;marker-end:url(#marker1355)"
       d="m 534.5,21 c 0.10168,15.373411 0.20337,30.746822 -0.5,48 -0.70337,17.253178 -2.21178,36.38612 -14,48.5 -11.78822,12.11388 -33.85623,17.20869 -51,22 -17.14377,4.79131 -29.36328,9.27911 -41,14 -11.63672,4.72089 -22.69066,9.67485 -30,16.5 -7.30934,6.82515 -10.8741,15.52147 -12.5,30.5 -1.6259,14.97853 -1.31295,36.23926 -1,57.5"
       inkscape:connector-curvature="0" />
    <path
       id="path20"
       style="fill:none;fill-rule:evenodd;stroke:#000000;stroke-width:2;stroke-linecap:butt;stroke-linejoin:bevel;stroke-miterlimit:10;stroke-dashoffset:0;stroke-opacity:1;marker-end:url(#marker1413)"
       d="m 211.5,343 c 4.45833,13.08333 8.91667,26.16667 20,33 11.08333,6.83333 28.79167,7.41667 46.5,8"
       inkscape:connector-curvature="0" />
    <path
       id="path22"
       style="fill:none;fill-rule:evenodd;stroke:#000000;stroke-width:2;stroke-linecap:butt;stroke-linejoin:bevel;stroke-miterlimit:10;stroke-dashoffset:0;stroke-opacity:1;marker-end:url(#marker1477)"
       d="m 69.5,288 c -0.291667,7.47619 -0.583333,14.95238 3.5,22.5 4.083333,7.54762 12.541667,15.16667 21.5,19 8.95833,3.83333 18.41667,3.88095 27,4 8.58333,0.11905 16.29167,0.30952 24,0.5"
       inkscape:connector-curvature="0" />
    <path
       id="path24"
       style="fill:none;fill-rule:evenodd;stroke:#000000;stroke-width:2;stroke-linecap:butt;stroke-linejoin:bevel;stroke-miterlimit:10;stroke-dashoffset:0;stroke-opacity:1;marker-end:url(#marker1547)"
       d="m 285.5,275 c -18.41071,-0.0804 -36.82143,-0.16071 -49.5,0 -12.67857,0.16071 -19.625,0.5625 -28.5,1.5 -8.875,0.9375 -19.67857,2.41071 -29.5,3 -9.82143,0.58929 -18.66071,0.29464 -27.5,0"
       inkscape:connector-curvature="0" />
    <path
       id="path26"
       style="fill:none;fill-rule:evenodd;stroke:#000000;stroke-width:2;stroke-linecap:butt;stroke-linejoin:bevel;stroke-miterlimit:10;stroke-dashoffset:0;stroke-opacity:1;marker-end:url(#marker1623)"
       d="m 143,217.5 c -3.66071,5.85119 -7.32143,11.70238 -12.5,15.5 -5.17857,3.79762 -11.875,5.54167 -21,7 -9.125,1.45833 -20.678571,2.63095 -27.5,7 -6.821429,4.36905 -8.910714,11.93452 -11,19.5"
       inkscape:connector-curvature="0" />
    <path
       id="path28"
       style="fill:none;fill-rule:evenodd;stroke:#000000;stroke-width:2;stroke-linecap:butt;stroke-linejoin:bevel;stroke-miterlimit:10;stroke-dashoffset:0;stroke-opacity:1;marker-end:url(#marker1705)"
       d="m 558.54417,328.99827 c 0.41414,14.10397 -5.77226,27.66438 -15.80825,37.69811 -10.036,10.03372 -23.5995,16.21884 -37.70668,16.3047 l -104.95838,-0.0986"
       inkscape:connector-curvature="0" />
    <path
       id="path30"
       style="fill:none;fill-rule:evenodd;stroke:#000000;stroke-width:2;stroke-linecap:butt;stroke-linejoin:bevel;stroke-miterlimit:10;stroke-dashoffset:0;stroke-opacity:1;marker-end:url(#marker1793)"
       d="m 483.5,209.5 c 0.44444,7.84444 0.88889,15.68889 0,27 -0.88889,11.31111 -3.11111,26.08889 -11,33 -7.88889,6.91111 -21.44444,5.95556 -35,5"
       inkscape:connector-curvature="0" />
    <path
       id="path32"
       style="fill:none;fill-rule:evenodd;stroke:#000000;stroke-width:2;stroke-linecap:butt;stroke-linejoin:bevel;stroke-miterlimit:10;stroke-dashoffset:0;stroke-opacity:1;marker-end:url(#marker1887)"
       d="m 195.5,118.5 c 0.48512,8.67857 0.97024,17.35714 -3.5,24 -4.47024,6.64286 -13.89583,11.25 -23,16 -9.10417,4.75 -17.8869,9.64286 -22,16.5 -4.1131,6.85714 -3.55655,15.67857 -3,24.5"
       inkscape:connector-curvature="0" />
    <path
       id="path34"
       style="fill:none;fill-rule:evenodd;stroke:#000000;stroke-width:2;stroke-linecap:butt;stroke-linejoin:bevel;stroke-miterlimit:10;stroke-dashoffset:0;stroke-opacity:1;marker-end:url(#marker1987)"
       d="M 443.5,9.5 C 413.55496,9.480362 383.60993,9.460724 357.5,9.5 331.39007,9.539276 309.11525,9.6374671 262,9.5 214.88475,9.3625329 142.92906,8.989408 101,9.5 59.070938,10.010592 47.168499,11.404901 36.5,20.5 25.831501,29.595099 16.396943,46.390988 12,70 7.6030574,93.609012 8.2437307,124.03115 8.5,158 c 0.2562693,33.96885 0.1281347,71.48443 0,109"
       inkscape:connector-curvature="0" />
  </g>
</svg>
